# xmcd
#
# Track frame offsets:
#	150
#	19619
#	36759
#	50062
#	68412
#	78687
#	93644
#	106728
#	122559
#	137144
#
# Disc length: 2061 seconds
#
# Revision: 1
# Processed by: cddbd v1.5.2PL0 Copyright (c) Steve Scherf et al.
# Submitted via: audiograbber 1.82.01
#
DISCID=7f080b0a
DTITLE=Rod Vienneau - Caraquet mon Pays
DYEAR=2006
DGENRE=Country
TTITLE0=05 Cher Mamans - 05 Cher Mamans
TTITLE1=01 Caraquet Mon Beau Pays - 01 Caraquet Mon Beau Pays
TTITLE2=02 Dit - Moi si C'est Moi
TTITLE3=03 Ce Soir Je Vais Boire Pour Oublie - 03 Ce Soir Je Vais Boire Pour Ou
TTITLE3=blie
TTITLE4=04 Demain Nos Coeurs seront Unis - 04 Demain Nos Coeurs seront Unis
TTITLE5=05 La Recette du Bonheur - 05 La Recette du Bonheur
TTITLE6=01 Chanson de Acadiens - 01 Chanson de Acadiens
TTITLE7=02 Pourquoi ca fait si Mal - 02 Pourquoi ca fait si Mal
TTITLE8=03 Aujourd'hui la Route est Lonque - 03 Aujourd'hui la Route est Lonque
TTITLE9=04 Dans Mon Pays près de la Mer - 04 Dans Mon Pays près de la Mer
EXTD=Francais
EXTT0=
EXTT1=
EXTT2=
EXTT3=
EXTT4=
EXTT5=
EXTT6=
EXTT7=
EXTT8=
EXTT9=
PLAYORDER=
